<svg xmlns="http://www.w3.org/2000/svg" width="100" height="100" fill="none"><path fill="#d6ff62" d="M50 0C22.39 0 0 22.38 0 50s22.39 50 50 50 50-22.39 50-50S77.62 0 50 0M19.59 68.38 37.32 23h5.9L25.44 68.38zm35.12.75c-9.05 0-15.02-6.41-15.02-16.09s6.1-16.31 15.09-16.28c7.45.03 13.04 4.31 14.2 11.25h-5.91c-1-3.89-4.15-5.97-8.11-5.97-5.59 0-9.42 4.28-9.42 10.94s3.58 10.87 9.17 10.87c4.21 0 7.36-2.2 8.43-5.84h5.9c-1.19 6.66-6.91 11.12-14.33 11.12m22 0c-2.39 0-4.52-2.01-4.52-4.4s2.07-4.46 4.52-4.46 4.46 2.01 4.46 4.46-2.07 4.4-4.46 4.4"/></svg>
